# xmcd
#
# Track frame offsets:
#	150
#	12546
#	25683
#	35752
#	48605
#	60623
#	72938
#	84186
#	96569
#	109106
#	120098
#	131697
#
# Disc length: 1911 seconds
#
# Revision: 1
# Processed by: cddbd v1.5.2PL0 Copyright (c) Steve Scherf et al.
# Submitted via: audiograbber 1.83.01
#
DISCID=9e07750c
DTITLE=Hank Williams - Vintage Vaults - Volume 2
DYEAR=1900
DGENRE=Country
TTITLE0=Your Cheatin' Heart
TTITLE1=Jambalya (On The Bayou)
TTITLE2=Honky Tonk Blues
TTITLE3=Lovesick Blues
TTITLE4=Weary Blues From Waitin'
TTITLE5=Lost Highway
TTITLE6=Crazy Heart
TTITLE7=Half As Much
TTITLE8=I Won't Be Home No More
TTITLE9=Why Don't You Love Me
TTITLE10=Baby, We're Really In Love
TTITLE11=My Son Calls Another Man Daddy
EXTD=
EXTT0=
EXTT1=
EXTT2=
EXTT3=
EXTT4=
EXTT5=
EXTT6=
EXTT7=
EXTT8=
EXTT9=
EXTT10=
EXTT11=
PLAYORDER=
